# xmcd
#
# Track frame offsets:
# 150
# 19986
# 43840
# 75521
# 108230
# 127170
# 147677
# 173837
# 195681
# 218519
# 242017
# 263820
# 286908
# 306944
# 328117
#
# Disc length: 4606 seconds
#
#
# Revision: 0
# Processed by: cddbd v1.5.2PL0 Copyright (c) Steve Scherf et al.
# Submitted via: FreeRIP 2.945 
#
DISCID=df11fc0f
DTITLE=Herriot-J1972 - Great-Small05
DYEAR=1972
DGENRE=Jungle
TTITLE0=GS 0501
TTITLE1=GS 0502
TTITLE2=GS 0503
TTITLE3=GS 0504
TTITLE4=GS 0505
TTITLE5=GS 0506
TTITLE6=GS 0507
TTITLE7=GS 0508
TTITLE8=GS 0509
TTITLE9=GS 0510
TTITLE10=GS 0511
TTITLE11=GS 0512
TTITLE12=GS 0513
TTITLE13=GS 0514
TTITLE14=GS 0515
EXTD=All Creatures Great and Small 12 CDs\nby James Harriot read by ChristopherTimothy\nAudio Renassance - Jungle - Country
EXTT0=
EXTT1=
EXTT2=
EXTT3=
EXTT4=
EXTT5=
EXTT6=
EXTT7=
EXTT8=
EXTT9=
EXTT10=
EXTT11=
EXTT12=
EXTT13=
EXTT14=
PLAYORDER=
